<?xml version="1.0" standalone="no"?><!DOCTYPE svg PUBLIC "-//W3C//DTD SVG 1.1//EN" "http://www.w3.org/Graphics/SVG/1.1/DTD/svg11.dtd"><svg t="1655307635488" class="icon" viewBox="0 0 1024 1024" version="1.1" xmlns="http://www.w3.org/2000/svg" p-id="8024" data-darkreader-inline-fill="" xmlns:xlink="http://www.w3.org/1999/xlink" width="200" height="200"><defs><style type="text/css"></style></defs><path d="M544.468293 702.134322c36.02482-10.057678 62.264195-20.135337 78.723122-30.222985 24.68839-15.137717-78.468371-194.3552-42.543454-270.653191 18.252176-38.767141 47.313795-64.21479 94.984741-61.145287 38.934478-33.979317 121.199141-3.79879 148.484996 43.912117 23.472078 41.039922 19.191259 76.153132 33.145131 93.171512-18.142283 26.19442-31.439298 24.96562-44.761288 25.674927-20.547434 1.093932-40.400546-15.327532-52.476253-32.897874-6.591063 73.603122 0.786732 169.986498-40.622829 218.554069-43.669854 51.21998-101.982907 63.323161-174.934166 36.312039v-22.705327z" fill="#DEA882" p-id="8025" data-darkreader-inline-fill="" style="--darkreader-inline-fill:#73421e;"></path><path d="M597.861151 708.048546c26.484137 0.434576 47.343766-4.680429 62.571395-15.350009 29.453737-20.634849 45.962615-24.9856 54.471805-135.552625 3.623961-47.071532 0.644371-127.173307 34.136664-140.173112 33.49479-12.999805 50.508176 9.70802 74.294946 36.234615 5.674459 6.32882 12.372917 14.413424 26.481639 15.262595 7.962224 0.479532 21.588917 13.012293-26.481639 34.21159-9.865366 4.350751-29.5936-3.084488-59.17721-22.305717-2.844722 75.473795-7.882302 123.874029-15.117736 145.200702-6.693463 19.735727-21.501502 46.67442-44.434108 80.808586a29.990712 29.990712 0 0 1-15.147707 11.633639l-91.618029 31.451785a18.41202 18.41202 0 0 1-24.383688-17.412995c0-13.264546 10.752-24.014049 24.011551-24.014049l0.392117 0.004995z" fill="#FFDDC5" p-id="8026" data-darkreader-inline-fill="" style="--darkreader-inline-fill:#562400;"></path><path d="M551.960976 719.569795c67.801288 23.656898 121.181659 11.661112 161.742048-35.907434 22.560468-26.456663 31.072156-66.322732 34.716098-138.080156 0.337171-6.631024 0.541971-11.191571 1.103922-24.181385 1.131395-26.064546 1.795746-38.200195 3.042029-52.099122 0.62439-6.990673 9.658068-9.360859 13.634186-3.576508 13.029776 18.95399 31.254478 31.933815 46.419668 31.127103 2.14041-0.11239 2.797268-0.149854 3.581502-0.199805 13.02478-0.82919 20.837151-4.657951 31.883864-19.505951-3.728859-6.186459-6.166478-13.93639-8.993717-26.314303-0.187317-0.824195-2.450107-10.994263-3.189386-14.153678a253.335102 253.335102 0 0 0-4.028566-15.310049c-3.596488-11.983298-8.10958-22.880156-14.256078-33.627161-26.479141-46.292293-103.708722-71.090576-137.058653-41.984a7.490185 7.490185 0 0 1-5.40722 1.83321c-40.964995-2.639922-68.887727 16.853541-87.726829 56.861971-11.316449 24.039024-8.556644 61.699746 5.614517 113.651512 3.801288 13.93639 8.276917 28.479688 14.088741 46.137444 2.679883 8.147044 11.526244 34.436371 12.662635 37.860527 4.625483 13.928898 7.707473 23.811746 10.040195 32.415844 6.616039 24.433639 7.170498 37.718166-2.722342 43.779746-16.30158 9.995239-41.304663 19.78318-75.146614 29.50119v11.771005z m212.537444-197.517112c-0.566946 13.02478-0.774244 17.605307-1.111415 24.291278-1.745795 34.436371-4.205893 58.575298-8.928781 80.6912-5.964176 27.920234-15.305054 49.883785-29.348839 66.350205-45.820254 53.737522-107.472546 66.537522-183.238556 38.479922a7.48519 7.48519 0 0 1-4.895219-7.025639v-22.705327a7.492683 7.492683 0 0 1 5.477151-7.217951c35.20562-9.8304 60.775649-19.625834 76.545249-29.223961 0.469541-1.473561 0.626888-3.19438 0.53198-5.507122-0.209795-5.077541-1.595941-12.263024-4.165931-21.751259-2.240312-8.271922-5.254868-17.92999-9.80043-31.614127-1.118907-3.376702-9.975259-29.693502-12.672624-37.89799-5.881756-17.877541-10.429815-32.653112-14.308527-46.876722-15.060293-55.20359-18.027395-95.704039-4.715395-123.978927 20.839649-44.261776 53.235512-67.504078 99.250576-65.590946 42.273717-33.027746 127.355629-4.890224 157.506185 47.828293 6.745912 11.79598 11.691083 23.73682 15.599766 36.759102a271.75961 271.75961 0 0 1 4.265834 16.201678c0.764254 3.25682 3.039532 13.484332 3.209366 14.236098 3.096976 13.569249 5.494634 20.232741 9.358361 24.940644a7.492683 7.492683 0 0 1 0.364644 9.018692c-15.35001 22.160859-27.55559 28.95922-46.272313 30.148059-0.856663 0.054946-1.548488 0.09241-3.029541 0.169834-17.083317 0.909112-33.971824-8.129561-48.01561-22.560468-0.509502 8.446751-0.986537 18.51442-1.605931 32.835434z" fill="#524F75" p-id="8027" data-darkreader-inline-fill="" style="--darkreader-inline-fill:#423f5e;"></path><path d="M766.998478 481.529756c0-18.314615 5.9392-32.103649 15.362498-32.543219a7.492683 7.492683 0 1 0-0.701815-14.967883c-20.564917 0.961561-29.648546 22.043473-29.648546 47.511102a7.492683 7.492683 0 1 0 14.987863 0zM673.292488 333.054751c-27.672976 24.725854-40.100839 53.772488-36.769093 86.530498a7.492683 7.492683 0 1 0 14.910439-1.51602c-2.827239-27.785366 7.617561-52.194029 31.843903-73.84039a7.492683 7.492683 0 1 0-9.985249-11.174088z" fill="#524F75" p-id="8028" data-darkreader-inline-fill="" style="--darkreader-inline-fill:#aaa398;"></path><path d="M397.112195 578.987083l-47.91321 7.927258a22.450576 22.450576 0 0 1-13.828995-2.485073l-33.896897-33.854439c0.032468-0.556956 0.329678-4.420683 0.329678-4.975141 0-9.156059-5.184937-11.054205-11.728547-16.548839a22.965073 22.965073 0 0 0-12.095687-17.235669l-11.573698-6.106536c-4.845268-2.555005-10.866888-0.91161-13.694127 3.743844a9.623102 9.623102 0 0 0 2.185366 12.485307h-18.946498c-8.926283 0-16.164215 7.153015-16.164214 15.979395 0 9.600624 6.054088 18.184741 15.167688 21.504l27.725424 10.102634 52.059161 71.545132a40.555395 40.555395 0 0 0 20.634849 11.204059L397.112195 664.35122" fill="#DEA882" p-id="8029" data-darkreader-inline-fill="" style="--darkreader-inline-fill:#73421e;"></path><path d="M309.188059 547.692644c0.077424-1.11641 0.107395-1.675863 0.107395-2.092956 0-7.887298-2.759805-12.897405-8.536664-17.655259-0.479532-0.394615-2.307746-1.810732-3.851239-3.019551a30.465249 30.465249 0 0 0-15.434927-19.735727l-11.573697-6.106536c-8.336859-4.400702-18.699239-1.568468-23.589464 6.478673a17.053346 17.053346 0 0 0-2.492565 8.883824h-7.867318c-13.044761 0-23.656898 10.487259-23.656897 23.472078 0 12.760039 8.032156 24.151415 20.095376 28.547122l25.575024 9.3184 50.715473 69.694439c0.219785 0.302205 0.464546 0.586927 0.72679 0.854166a48.038088 48.038088 0 0 0 24.446127 13.277034l61.824625 12.095688a7.49518 7.49518 0 0 0 2.879687-14.708137l-61.7472-12.075707a33.007766 33.007766 0 0 1-16.361522-8.736468l-51.712-71.0656a7.500176 7.500176 0 0 0-3.49159-2.632429L237.518049 552.383063c-6.16398-2.245307-10.24-8.024663-10.24-14.465873 0-4.667941 3.863727-8.486712 8.671531-8.486712h18.946498c7.063102 0 10.202537-8.878829 4.7104-13.319493a2.122927 2.122927 0 0 1-0.494517-2.7648 2.884683 2.884683 0 0 1 3.793795-1.006517l11.573698 6.106537a15.464898 15.464898 0 0 1 8.169522 11.613658c0.249756 1.845698 1.178849 3.531551 2.607453 4.732878 1.448585 1.213815 5.514615 4.340761 5.976664 4.720391 2.547512 2.097951 3.079493 3.067005 3.079492 6.089053 0-0.037463-0.059941 0.91161-0.134868 1.955591l-0.114888 1.620917c-0.039961 0.536976-0.057444 0.79922-0.067434 0.976546a7.492683 7.492683 0 0 0 2.185366 5.72441l33.896898 33.854439c0.509502 0.507005 1.091434 0.94158 1.723317 1.286244a29.905795 29.905795 0 0 0 18.446985 3.314263l48.088039-7.952234a7.492683 7.492683 0 0 0-2.44761-14.785561l-47.91321 7.927259a14.795551 14.795551 0 0 1-8.159531-1.243786l-30.62759-30.587629z" fill="#524F75" p-id="8030" data-darkreader-inline-fill="" style="--darkreader-inline-fill:#423f5e;"></path><path d="M252.438478 533.601405l11.481288 1.019005a10.394849 10.394849 0 0 1 8.763941 14.136195 12.043239 12.043239 0 0 1-17.123278 6.114029l-8.763941-4.93518a8.501698 8.501698 0 0 1-3.846244-10.235005 9.20601 9.20601 0 0 1 9.488234-6.099044z" fill="#FFDDC5" p-id="8031" data-darkreader-inline-fill="" style="--darkreader-inline-fill:#ffc9a3;"></path><path d="M381.676018 662.207904c-11.699234 1.662213-22.735213 4.349883-33.102963 8.072364-10.371067 3.716244-18.434212 16.208178-24.192024 37.467177-2.926037 27.765985 14.211923 54.648569 42.052187 63.157579L394.908073 779.610661C419.076591 786.999719 444.628369 773.505605 451.977265 749.468451l0.599507-1.960901c5.090337-16.649742 1.620332-34.190322-8.299425-47.497441" fill="#DEA882" p-id="8032" data-darkreader-inline-fill="" style="--darkreader-inline-fill:#dda67f;"></path><path d="M368.619089 763.738276L397.096333 772.444643C417.318435 778.629771 438.67524 767.350163 444.811977 747.277802l0.599507-1.9609c4.294401-14.046354 1.559945-29.157798-7.14165-40.828435a7.492683 7.492683 0 0 1 12.015026-8.956717C461.815016 710.994857 465.442128 731.054119 459.742061 749.698199l-0.599508 1.9609c-8.561054 28.001947-38.309267 43.715343-66.427516 35.11612l-28.477975-8.703978c-30.944492-9.460681-50.649378-39.436776-47.313146-71.107173l0.064851-0.596529 0.157803-0.575947c6.336446-23.390816 15.646059-37.815615 28.895424-42.566235 10.856434-3.894312 22.38945-6.704248 34.582327-8.434921a7.492683 7.492683 0 0 1 2.105052 14.838054c-11.204129 1.588977-21.744533 4.159157-31.626915 7.70357-7.413479 2.66171-14.165503 13.026389-19.329361 31.787395-2.288211 24.33859 12.975298 47.323429 36.845992 54.618821z" fill="#524F75" p-id="8033" data-darkreader-inline-fill="" style="--darkreader-inline-fill:#aaa398;"></path><path d="M392.200698 636.658401a8.356839 8.356839 0 1 1-13.856104-9.346412 8.356839 8.356839 0 1 1 13.856104 9.346412Z" fill="#524F75" p-id="8034" data-darkreader-inline-fill="" style="--darkreader-inline-fill:#aaa398;"></path><path d="M418.80381 751.50979c-33.006504-4.697984-56.679589-7.164035-71.023303-7.402002-12.247571-0.20041-27.678778 1.05993-46.299857 3.784335A22.003512 22.003512 0 0 0 282.691592 770.81352a19.723239 19.723239 0 0 0 20.725746 18.658397L420.254795 783.351005a14.503337 14.503337 0 0 0 13.729086-15.246547 17.697717 17.697717 0 0 0-15.180071-16.594668z" fill="#DEA882" p-id="8035" data-darkreader-inline-fill="" style="--darkreader-inline-fill:#dda67f;"></path><path d="M426.500039 768.493389a7.013151 7.013151 0 0 1-6.635833 7.370654l-116.842964 6.121841a12.223063 12.223063 0 0 1-12.846005-11.56919 14.510829 14.510829 0 0 1 12.389224-15.118178c18.249717-2.66296 33.303263-3.892508 45.090111-3.697149 13.95478 0.228749 37.377537 2.667889 70.093109 7.326548a10.202537 10.202537 0 0 1 8.749969 9.564743z m-78.599834-31.875864c-12.69655-0.209704-28.513313 1.081625-47.502104 3.855533a29.498693 29.498693 0 0 0-25.187963 30.730123c0.786015 15.009353 13.587508 26.536206 28.594472 25.74946L420.647574 790.830801a21.998517 21.998517 0 0 0 20.816834-23.121511 25.185405 25.185405 0 0 0-21.604468-23.617625c-33.291929-4.738237-57.223238-7.231001-71.959735-7.47414z" fill="#524F75" p-id="8036" data-darkreader-inline-fill="" style="--darkreader-inline-fill:#423f5e;"></path><path d="M288.966634 762.948643l18.734191-0.984398a7.492683 7.492683 0 1 1 0.783368 14.966758l-18.73273 0.979621a7.492683 7.492683 0 1 1-0.784829-14.961981z" fill="#524F75" p-id="8037" data-darkreader-inline-fill="" style="--darkreader-inline-fill:#aaa398;"></path><path d="M439.001288 490.366127h47.653463c32.238517 0 62.184273 56.779551 74.76199 86.405619l29.121561 68.605503c17.298107 40.74521-1.780761 87.77678-42.605892 105.037424a80.398985 80.398985 0 0 1-31.319415 6.3488h-96.658107C375.61319 756.760976 339.668293 720.888507 339.668293 676.631727c0-5.649483 1.451083-13.73159 2.637424-19.256195l13.202107-57.511337c5.002615-23.277268 24.810771-67.269307 44.778771-80.741151 11.718556-7.907278 24.715863-28.756917 38.714693-28.756917z" fill="#DEA882" p-id="8038" data-darkreader-inline-fill="" style="--darkreader-inline-fill:#73421e;"></path><path d="M439.001288 497.85881c-4.415688 0-9.705522 3.821268-19.361093 13.636683-9.046166 9.193522-10.906849 10.969288-15.162693 13.836487-15.75961 10.634615-35.954888 49.636527-41.666809 76.208079l-13.17963 57.411434c-1.478556 6.888273-2.470088 13.50681-2.470087 17.680234C347.160976 716.747551 379.749151 749.268293 419.954888 749.268293h96.660605a72.878829 72.878829 0 0 0 28.399766-5.756878c37.013854-15.652215 54.304468-58.278088 38.627278-95.209522l-29.121561-68.605503c-19.308644-45.490576-45.890185-81.840078-67.863727-81.840078h-47.655961z m0-14.985366h47.653463c17.69522 0 34.546263 12.934868 50.802888 35.163161 11.728546 16.041834 22.575454 36.299551 30.854868 55.808l29.121561 68.603005c18.914029 44.56398-1.9456 95.993756-46.584507 114.867824A87.94162 87.94162 0 0 1 516.612995 764.253659h-96.658107C371.479727 764.253659 332.17561 725.026966 332.17561 676.631727c0-5.507122 1.11641-12.977327 2.827239-20.932059l13.179629-57.411434c6.423727-29.89081 28.304859-72.147044 47.91321-85.376624 3.029541-2.043005 4.777834-3.708878 12.862439-11.925854 12.672624-12.88242 19.913054-18.112312 30.043161-18.112312z" fill="#524F75" p-id="8039" data-darkreader-inline-fill="" style="--darkreader-inline-fill:#423f5e;"></path><path d="M418.01678 579.434146a56.270049 56.270049 0 0 1 53.874888 40.020917l12.412878 41.149815c10.04519 33.302478-8.8064 68.440663-42.108878 78.488351a63.028449 63.028449 0 0 1-18.189736 2.682381h-7.392781c-35.587746 0-64.437073-28.849327-64.437073-64.439571 0-5.649483 0.741776-11.276488 2.210342-16.731161l10.971785-40.802654A54.529249 54.529249 0 0 1 418.01678 579.434146z" fill="#FFDDC5" p-id="8040" data-darkreader-inline-fill="" style="--darkreader-inline-fill:#ffc9a3;"></path><path d="MNaN NaNcNaN NaN NaN NaN NaN NaNLNaN NaNCNaN NaN NaN NaN NaN NaNlNaN NaNcNaN NaN NaN NaN NaN NaN" fill="#DEA882" p-id="8041" data-darkreader-inline-fill="" style="--darkreader-inline-fill:#dda67f;"></path><path d="MNaN NaNcNaN NaN NaN NaN NaN NaN NaN NaN NaN NaN NaN NaNlNaN NaNcNaN NaN NaN NaN NaN NaNlNaN NaNcNaN NaN NaN NaN NaN NaNaNaN NaN NaN 1 0 NaN NaNCNaN NaN NaN NaN NaN NaNlNaN NaNcNaN NaN NaN NaN NaN NaNlNaN NaNcNaN NaN NaN NaN NaN NaNaNaN NaN NaN 0 0 NaN NaNz" fill="#524F75" p-id="8042" data-darkreader-inline-fill="" style="--darkreader-inline-fill:#aaa398;"></path><path d="MNaN NaNaNaN NaN NaN 1 0 NaN NaN NaN NaN NaN 1 0 NaN NaNZ" fill="#524F75" p-id="8043" data-darkreader-inline-fill="" style="--darkreader-inline-fill:#aaa398;"></path><path d="M525.771551 755.564644c32.817951-3.496585 56.332488-5.117502 70.531122-4.852761 12.130654 0.22478 27.36078 2.005541 45.697873 5.34478a21.746263 21.746263 0 0 1 17.772644 23.289757 19.488468 19.488468 0 0 1-21.11438 17.7152l-115.417288-10.09764a14.340995 14.340995 0 0 1-13.037268-15.534829 17.482927 17.482927 0 0 1 15.567297-15.864507z" fill="#DEA882" p-id="8044" data-darkreader-inline-fill="" style="--darkreader-inline-fill:#dda67f;"></path><path d="M526.563278 763.012371a9.990244 9.990244 0 0 0-8.896312 9.066146 6.848312 6.848312 0 0 0 6.226419 7.420254l115.419786 10.100136a11.995785 11.995785 0 0 0 12.994809-10.909346 14.25358 14.25358 0 0 0-11.646126-15.265093c-17.972449-3.26681-32.820449-5.005112-44.496547-5.2224-13.809015-0.254751-37.0688 1.343688-69.602029 4.810303z m-1.588449-14.897951c33.115161-3.529054 56.874459-5.164956 71.470205-4.89522 12.580215 0.232273 28.194966 2.05799 46.896703 5.462166a29.241444 29.241444 0 0 1 23.896663 31.311922c-1.298732 14.845502-14.385951 25.829776-29.228956 24.526049l-115.422283-10.095142a21.828683 21.828683 0 0 1-19.84562-23.651902 24.970615 24.970615 0 0 1 22.233288-22.657873z" fill="#524F75" p-id="8045" data-darkreader-inline-fill="" style="--darkreader-inline-fill:#423f5e;"></path><path d="M653.841483 771.271805l-18.501932-1.61842a7.492683 7.492683 0 0 0-1.303727 14.927922l18.499435 1.61842a7.492683 7.492683 0 1 0 1.306224-14.927922z" fill="#524F75" p-id="8046" data-darkreader-inline-fill="" style="--darkreader-inline-fill:#aaa398;"></path><path d="M515.298826 576.598671c-15.1827 18.70719-18.135931 32.01829-24.852782 52.147227-9.671498 0.42497-22.506778 3.474872-38.513652 9.150865-2.945111-3.174589-7.007308-5.407445-12.670786-7.390072-10.57227-3.700306-20.49048-4.551378-22.434694-4.600009-7.815486-0.191191-14.254996-0.908195-18.294762 3.132118-2.693853 2.692577-3.48897 13.386553 7.396541 15.08025-14.992076 0.582399-25.152319 5.044872-24.051807 12.870016 1.100512 7.825144 11.827175 8.549943 32.180423 2.171936-21.25656 4.798518-30.462539 11.011773-27.618807 18.644685 2.843732 7.632911 16.203672 9.100998 40.085029 4.417858l15.801956-3.967296a21.658849 21.658849 0 0 0 11.191757-6.918122c31.636252 5.071107 51.848424 3.793663 60.635216-3.824954 9.086532-7.880239 23.567088-18.362429 38.394865-45.541876" fill="#DEA882" p-id="8047" data-darkreader-inline-fill="" style="--darkreader-inline-fill:#73421e;"></path><path d="M380.467914 667.856308c2.614029 1.744185 5.94933 2.763424 9.773833 3.021869 4.039933 0.273606 8.891122-0.227807 14.630541-1.480521a133.814322 133.814322 0 0 0 11.426816-3.087757c9.151178-2.867671 5.465577-16.570797-3.889561-14.459339a135.180488 135.180488 0 0 0-11.42277 3.050429c-5.829325 1.863275-10.469929 3.946298-13.969984 6.306514-2.85629 1.931005-5.080718 4.176312-6.548875 6.648805-2.242012 3.768932-2.729854 8.060204-1.05123 12.563564 4.748285 12.739121 21.102565 14.542447 48.549314 9.156535l16.182163-4.052421a29.116566 29.116566 0 0 0 11.960686-6.201775c31.61175 4.706662 52.314627 3.076998 62.954399-6.147388 0.981968-0.851433 5.237658-4.447898 4.823344-4.097426 2.222742-1.890551 4.00715-3.452619 5.830027-5.132171a131.386693 131.386693 0 0 0 13.674556-14.555248c5.524658-6.852227 10.746074-14.688669 15.732927-23.826907a7.492683 7.492683 0 0 0-13.151961-7.178194c-4.560301 8.358789-9.287306 15.448035-14.249835 21.600512a116.553678 116.553678 0 0 1-12.14248 12.928399 185.933424 185.933424 0 0 1-5.396909 4.746974c-0.384947 0.327753-0.775681 0.659559-1.278529 1.080647l-1.248296 1.053009c-1.013652 0.858527-1.721486 1.46411-2.4095 2.057972-6.517762 5.652536-25.011732 6.822099-54.541399 2.086934a7.487688 7.487688 0 0 0-6.871073 2.521569 14.148683 14.148683 0 0 1-7.331742 4.530078l-15.610552 3.917355c-11.165362 2.180289-19.719599 2.913849-25.476208 2.279217-2.413152-0.26573-4.147931-0.754217-5.200559-1.343061-0.451726-0.257178-0.631296-0.418181-0.7161-0.570084 0.268329-0.371141 0.871564-0.944447 1.90752-1.641803 2.116177-1.430021 5.286782-2.856716 9.470296-4.231612a119.243551 119.243551 0 0 1 10.835677-2.928237l-3.89202-14.459773c-4.075019 1.277367-7.691302 2.239991-10.829605 2.893803-4.075946 0.85114-7.3406 1.18595-9.736665 1.024676a9.470751 9.470751 0 0 1-1.895201-0.283453c0.634674-1.298156 5.986203-3.615948 16.862016-4.03906 9.062695-0.352255 9.823327-13.497102 0.857903-14.890278-1.945551-0.29994-2.465452-0.774562-2.681721-1.619172a3.094478 3.094478 0 0 1-0.064106-1.132256c1.129284-0.62257 3.434438-0.837451 8.822192-0.671096l1.689579 0.054454 1.796352 0.052992c1.131834 0.024583 3.905242 0.31833 6.919717 0.827039a81.165737 81.165737 0 0 1 13.222756 3.353573c4.842091 1.693237 7.761819 3.372129 9.654081 5.412574a7.490185 7.490185 0 0 0 7.994702 1.965085c15.368289-5.448757 27.536473-8.339853 36.339174-8.727807a7.492683 7.492683 0 0 0 6.775512-5.115086c0.559388-1.676628 1.111397-3.354557 1.800211-5.47754l1.658909-5.122041c2.2585-6.925993 3.748552-11.119167 5.534472-15.336254 3.541176-8.360962 7.911661-15.657629 14.572012-23.859154a7.492683 7.492683 0 1 0-11.636901-9.442065c-7.548966 9.300202-12.648179 17.809967-16.733172 27.457208-1.991296 4.705844-3.60399 9.234981-5.985126 16.540052a8031.686556 8031.686556 0 0 1-1.884658 5.81263c-8.684121 1.009917-19.081179 3.579287-31.265396 7.697559-3.180971-2.369123-7.045198-4.257669-11.874991-5.948737-9.088651-3.182558-19.191446-4.885335-24.729374-5.01984-0.505368-0.010491-1.02752-0.026478-1.68842-0.046641l-1.699417-0.056188c-10.505392-0.325658-15.425842 0.467873-20.385789 5.426307-3.918687 3.914569-4.984007 9.841237-3.371667 15.238293-10.576092 3.138855-16.764336 9.382073-15.405603 19.050836 0.616509 4.356658 2.761846 7.651442 6.015708 9.822922z" fill="#524F75" p-id="8048" data-darkreader-inline-fill="" style="--darkreader-inline-fill:#423f5e;"></path><path d="M534.030149 558.361736a7.550127 7.572605 50.007 1 0-11.603093 9.733735 7.550127 7.572605 50.007 1 0 11.603093-9.733735Z" fill="#524F75" p-id="8049" data-darkreader-inline-fill="" style="--darkreader-inline-fill:#aaa398;"></path><path d="M488.351543 636.223243c6.768175-0.657934 12.371728-0.953138 16.776658-0.894143a7.492683 7.492683 0 0 0 0.207554-14.984663c-5.019531-0.068458-11.153043 0.255032-18.432075 0.962374a7.492683 7.492683 0 0 0 1.447863 14.916432z" fill="#524F75" p-id="8050" data-darkreader-inline-fill="" style="--darkreader-inline-fill:#aaa398;"></path><path d="M382.016937 311.942868c-14.710634-36.409444 3.221854-69.287337 36.314536-95.556683 22.727805 25.98962 30.585132 51.809405 33.984312 92.919259" fill="#DEA882" p-id="8051" data-darkreader-inline-fill="" style="--darkreader-inline-fill:#dda67f;"></path><path d="M444.84558 309.922341a7.492683 7.492683 0 1 0 14.935415-1.236292c-3.713873-44.881171-12.944859-71.08558-35.805034-97.237542a7.492683 7.492683 0 0 0-10.299941-0.934087c-38.48242 30.550166-53.762498 66.722341-38.607298 104.235707a7.492683 7.492683 0 0 0 13.893932-5.614517c-11.578693-28.659512-1.123902-56.63719 28.397268-82.21721 17.113288 21.666341 24.296273 44.406634 27.485658 83.003941z" fill="#524F75" p-id="8052" data-darkreader-inline-fill="" style="--darkreader-inline-fill:#aaa398;"></path><path d="M403.523434 301.315746c-10.070166-24.925659-7.192976-39.921015 14.168664-60.848078 15.557307 17.792624 20.754732 40.295649 19.935531 53.322927-0.8192 13.029776-13.287024 25.377717-17.994927 25.694907-3.141932 0.209795-8.514185-5.84679-16.109268-18.169756z" fill="#FFDDC5" p-id="8053" data-darkreader-inline-fill="" style="--darkreader-inline-fill:#ffc9a3;"></path><path d="M425.519454 220.259902c3.506576-9.043668 5.322302-16.09678 5.377248-21.436565 0.049951-5.179941-1.243785-11.9808-3.841248-20.604878A6.243902 6.243902 0 1 0 415.094634 181.822439c2.265288 7.517659 3.351727 13.207102 3.311766 16.87602-0.037463 3.509073-1.523512 9.288429-4.535571 17.050848a6.243902 6.243902 0 0 0 11.646127 4.515591z" fill="#524F75" p-id="8054" data-darkreader-inline-fill="" style="--darkreader-inline-fill:#aaa398;"></path><path d="M424.133307 225.844449c6.745912-2.222829 11.726049-4.233366 15.060293-6.131512 3.321756-1.890654 7.727454-5.214907 13.381932-10.050186a6.243902 6.243902 0 0 0-8.114576-9.493229c-5.097522 4.360741-8.966244 7.277893-11.443824 8.689015-2.460098 1.398634-6.760898 3.136937-12.787512 5.12a6.2464 6.2464 0 0 0 3.903687 11.863414z" fill="#524F75" p-id="8055" data-darkreader-inline-fill="" style="--darkreader-inline-fill:#aaa398;"></path><path d="M421.28359 218.361756c-2.192859-7.013151-4.89522-12.452839-8.246946-16.334049-3.321756-3.843746-8.032156-7.230439-14.113717-10.25998a6.243902 6.243902 0 0 0-5.569561 11.179083c4.7104 2.347707 8.112078 4.787824 10.23001 7.242927 2.080468 2.412644 4.053541 6.383766 5.779356 11.900878a6.2464 6.2464 0 0 0 11.920858-3.728859z" fill="#524F75" p-id="8056" data-darkreader-inline-fill="" style="--darkreader-inline-fill:#aaa398;"></path><path d="M574.009444 355.170654c-2.205346-43.569951-42.283707-64.599415-71.650029-76.148137s-67.728859-13.299512-107.51001 0c-39.781151 13.297015-73.787941 35.730107-73.787942 82.004917 0 10.889366 2.087961 21.296702 5.889249 30.842381-12.330459 14.573268-19.760702 33.387395-19.760702 53.927336 0 46.272312 37.70318 83.78318 84.210263 83.783181h110.959142c46.50958 0 105.834146-33.547239 105.716761-88.308761-0.064937-29.703493-25.060527-51.919298-36.596761-66.255298 2.072976-5.569561 2.914654-12.1856 2.530029-19.845619z" fill="#DEA882" p-id="8057" data-darkreader-inline-fill="" style="--darkreader-inline-fill:#73421e;"></path><path d="M313.56878 361.027434c0-44.888663 28.120039-72.134556 78.905444-89.110478 39.553873-13.222088 79.896976-12.740059 112.63001 0.132371 19.595863 7.707473 35.31801 16.194185 48.185444 27.385756 17.078322 14.852995 27.083551 33.152624 28.204956 55.358439 0.344663 6.800859-0.187317 12.977327-1.633405 18.519415 3.828761 4.438166 10.492254 12.035746 12.852449 14.915434 14.820527 18.062361 22.81522 34.304 22.855181 53.023219 0.059941 28.192468-14.206127 52.860878-38.417483 70.735922-21.474029 15.854517-49.384273 25.083005-74.791961 25.083005h-110.959142c-50.638049 0-91.702946-40.855102-91.702946-91.275863a90.631493 90.631493 0 0 1 18.751688-55.313483 90.801327 90.801327 0 0 1-4.880235-29.453737z m186.048313-75.031727c-29.386302-11.556215-66.110439-11.998283-102.395005 0.132371-45.345717 15.160195-68.667941 37.755629-68.667942 74.899356 0 9.740488 1.83321 19.216234 5.357269 28.070088a7.490185 7.490185 0 0 1-1.241288 7.610068 75.69358 75.69358 0 0 0-17.987434 49.087064c0 42.126361 34.338966 76.290498 76.71758 76.290497h110.959142c22.195824 0 46.99161-8.196995 65.890653-22.153366 20.60238-15.210146 32.380878-35.580254 32.330927-58.647726-0.032468-14.52082-6.621034-27.910244-19.456-43.549971-2.859707-3.484098-13.431883-15.467395-15.487375-18.0224a7.49518 7.49518 0 0 1-1.183844-7.315356c1.693346-4.540566 2.407649-10.145093 2.070478-16.846049-1.640898-32.525737-25.495102-53.270478-66.907161-69.554576z" fill="#524F75" p-id="8058" data-darkreader-inline-fill="" style="--darkreader-inline-fill:#423f5e;"></path><path d="M376.379203 376.144418a27.46318 30.887337 40.002 1 0-42.074802-35.307453 27.46318 30.887337 40.002 1 0 42.074802 35.307453Z" fill="#FFFFFF" p-id="8059" data-darkreader-inline-fill="" style="--darkreader-inline-fill:#e8e6e3;"></path><path d="M355.340488 396.872429C335.827044 396.872429 320.384624 379.50439 320.384624 358.489912 320.384624 337.477932 335.827044 320.11239 355.340488 320.11239s34.955863 17.368039 34.955863 38.38002c-0.002498 21.01198-15.44242 38.38002-34.955863 38.380019z m0-14.985366c10.819434 0 19.970498-10.289951 19.970497-23.394653C375.308488 345.387707 366.159922 335.097756 355.340488 335.097756S335.36999 345.387707 335.36999 358.489912c0 13.104702 9.151063 23.397151 19.970498 23.397151z" fill="#524F75" p-id="8060" data-darkreader-inline-fill="" style="--darkreader-inline-fill:#aaa398;"></path><path d="M358.564839 371.829385c1.533502 2.018029 3.79879 3.291785 6.326322 3.291786 4.61799 0 8.359337-4.255844 8.359337-9.50322s-3.741346-9.50322-8.359337-9.503219c-4.560546 0-8.266927 4.150946-8.356839 9.310907l6.196449 1.024-4.165932 5.379746z" fill="#232323" p-id="8061" data-darkreader-inline-fill="" style="--darkreader-inline-fill:#d2cec8;"></path><path d="M453.886653 383.255434a36.53682 39.656273 40.002 1 0-55.976015-46.972783 36.53682 39.656273 40.002 1 0 55.976015 46.972783Z" fill="#FFFFFF" p-id="8062" data-darkreader-inline-fill="" style="--darkreader-inline-fill:#e8e6e3;"></path><path d="M425.894088 406.915122C401.435473 406.915122 381.867083 385.675863 381.867083 359.766166 381.867083 333.858966 401.435473 312.619707 425.894088 312.619707s44.029502 21.239259 44.029502 47.146459c0 25.909698-19.56839 47.148956-44.029502 47.148956z m0-14.985366c15.896976 0 29.044137-14.268566 29.044136-32.16359C454.938224 341.873639 441.793561 327.605073 425.894088 327.605073 409.99961 327.605073 396.852449 341.873639 396.852449 359.766166c0 17.895024 13.147161 32.16359 29.041639 32.16359z" fill="#524F75" p-id="8063" data-darkreader-inline-fill="" style="--darkreader-inline-fill:#aaa398;"></path><path d="M427.477541 373.193054c2.030517 2.56999 5.032585 4.1984 8.379318 4.1984 6.116527 0 11.074185-5.424702 11.074185-12.115669 0-6.693463-4.957659-12.118166-11.074185-12.118165-6.039102 0-10.951805 5.292332-11.071688 11.870907l8.209483 1.303727-5.517113 6.8608z" fill="#232323" p-id="8064" data-darkreader-inline-fill="" style="--darkreader-inline-fill:#d2cec8;"></path><path d="M488.398049 314.722654c0-39.269151 28.941737-63.033444 69.472156-74.994264 11.331434 32.610654 8.943766 59.4944-3.301776 98.883434" fill="#DEA882" p-id="8065" data-darkreader-inline-fill="" style="--darkreader-inline-fill:#dda67f;"></path><path d="M547.415415 336.386498a7.490185 7.490185 0 1 0 14.308526 4.448156c13.371941-43.005502 14.625717-70.755902 3.224352-103.568859a7.492683 7.492683 0 0 0-9.198517-4.727883c-47.12398 13.911415-74.84441 41.726751-74.84441 82.184742a7.492683 7.492683 0 1 0 14.985366 0c0-30.909815 20.1728-52.933307 57.129209-65.590947 7.749932 26.499122 5.891746 50.270907-5.604526 87.254791z" fill="#524F75" p-id="8066" data-darkreader-inline-fill="" style="--darkreader-inline-fill:#aaa398;"></path><path d="M512.319688 312.926907c0-26.883746 8.286907-39.706224 35.934907-51.10759 7.754927 22.328195 4.143454 45.135922-1.496039 56.909424s-21.82119 18.551883-26.309307 17.078322c-2.98958-0.981541-5.699434-8.609093-8.129561-22.877658z" fill="#FFDDC5" p-id="8067" data-darkreader-inline-fill="" style="--darkreader-inline-fill:#ffc9a3;"></path><path d="M563.07762 246.014751c6.638517-7.073093 10.96679-12.932371 13.017287-17.862556 1.990556-4.782829 3.334244-11.576195 4.158439-20.542439a6.2464 6.2464 0 0 0-12.437853-1.141385c-0.7168 7.817366-1.840702 13.49682-3.251825 16.886009-1.348683 3.239337-4.892722 8.042146-10.594653 14.11122a6.248898 6.248898 0 0 0 9.108605 8.549151z" fill="#524F75" p-id="8068" data-darkreader-inline-fill="" style="--darkreader-inline-fill:#aaa398;"></path><path d="M559.703415 250.670205c7.088078 0.469541 12.457834 0.469541 16.264117-0.042459 3.786302-0.509502 9.116098-1.943102 16.171707-4.305795a6.243902 6.243902 0 1 0-3.968624-11.843434c-6.363785 2.132917-11.044215 3.38919-13.866459 3.771317-2.804761 0.374634-7.447727 0.374634-13.776546-0.044956a6.243902 6.243902 0 0 0-0.824195 12.465327z" fill="#524F75" p-id="8069" data-darkreader-inline-fill="" style="--darkreader-inline-fill:#aaa398;"></path><path d="M559.863259 242.665522c0.591922-7.325346 0.124878-13.379434-1.531005-18.232195-1.633405-4.807805-4.735376-9.713015-9.243474-14.803044a6.243902 6.243902 0 1 0-9.345873 8.279415c3.486595 3.938654 5.726907 7.480195 6.770888 10.5472 1.028995 3.014556 1.371161 7.437737 0.90162 13.199609a6.2464 6.2464 0 0 0 12.447844 1.009015z" fill="#524F75" p-id="8070" data-darkreader-inline-fill="" style="--darkreader-inline-fill:#aaa398;"></path><path d="M367.965659 427.20281c26.903727-23.517034 68.825288-19.940527 99.240585-17.415493 31.209522 2.592468 57.086751 25.430166 57.086751 56.797034v6.196449c0 16.27161-6.878283 30.94478-17.897522 41.299668-6.995668 9.403317-19.141307 14.66318-36.756605 16.908488-11.746029 1.491044-32.353405 2.147902-61.824624 1.968078-6.658498 7.595083-23.32722 11.25401-34.251551 11.25401-10.926829 0-24.246322-7.038127-30.90482-14.630712-22.390634-18.944-36.446907-33.991805-42.168819-45.145912s-8.661541-20.839649-8.818888-29.064118c0-19.718244 8.941268-45.580488 27.22841-45.580487 12.188098-0.004995 28.544624 5.801834 49.067083 17.412995z" fill="#FFDDC5" p-id="8071" data-darkreader-inline-fill="" style="--darkreader-inline-fill:#562400;"></path><path d="M372.895844 432.842302a7.492683 7.492683 0 0 1-8.621581 0.881639c-19.495961-11.031727-34.748566-16.443941-45.375687-16.443941-10.687063 0-19.735727 17.872546-19.735727 37.945444 0.132371 6.938224 2.752312 15.569795 7.994692 25.787317 5.149971 10.040195 18.651785 24.496078 40.340605 42.845659 0.282224 0.239766 0.549463 0.499512 0.794225 0.779239 5.679454 6.478673 17.113288 12.078205 25.270322 12.078204 11.064195 0 24.418654-3.908683 28.619551-8.699004a7.497678 7.497678 0 0 1 5.679454-2.552508c29.159024 0.177327 49.509151-0.472039 60.833092-1.913131 16.15922-2.052995 26.249366-6.628527 31.691551-13.943883a7.517659 7.517659 0 0 1 0.881639-0.989035c9.855376-9.260956 15.534829-22.090927 15.53483-35.84v-6.193951c0-26.256859-21.561444-46.954146-50.213464-49.331824l-3.446634-0.284722c-17.378029-1.42361-28.055102-1.878166-39.451473-1.281249-21.693815 1.138888-38.494907 6.403746-50.795395 17.158244z m50.006166-32.118634c12.245541-0.644371 23.457093-0.169834 41.464507 1.308722l3.459122 0.28722c36.049795 2.992078 63.960039 29.783415 63.960039 64.264741v6.196449c0 17.710205-7.237932 34.28402-19.785678 46.312273-8.316878 10.784468-21.9136 16.843551-41.414556 19.323629-11.748527 1.498537-31.609132 2.165385-59.779122 2.048-8.539161 7.168-23.816741 11.239024-37.243629 11.239025-12.455337 0-27.640507-7.347824-36.1472-16.748644-22.860176-19.381073-37.336039-34.910907-43.59243-47.104-6.198946-12.085698-9.460761-22.832702-9.643083-32.483278 0-27.420722 12.987317-53.073171 34.721093-53.073171 12.785015 0 28.776898 5.357268 48.277854 15.909464 14.62322-11.006751 33.162615-16.299083 55.723083-17.482927z" fill="#524F75" p-id="8072" data-darkreader-inline-fill="" style="--darkreader-inline-fill:#423f5e;"></path><path d="M349.019161 395.763512c5.414712 0.042459 11.66361 1.191337 18.746693 3.441639 7.367805 2.257795 13.584234 7.038127 13.584234 15.854517 0 0.63438-0.039961 1.268761-0.114888 1.900644-1.2288 10.192546-9.917815 17.862556-20.235239 17.862556h-18.107317c-11.0592 0-20.782205-7.285385-23.834224-17.862556-2.145405-7.430244 2.175376-15.177678 9.638087-17.318088 2.065483-0.591922 9.790439-3.963629 20.322654-3.878712z" fill="#8B674F" p-id="8073" data-darkreader-inline-fill="" style="--darkreader-inline-fill:#b5947d;"></path><path d="M348.95922 403.256195c-4.318283-0.037463-8.384312 0.591922-12.36043 1.703337-1.718322 0.479532-5.716917 1.848195-5.8368 1.883161-3.49159 1.001522-5.497132 4.600507-4.503102 8.037151 2.125424 7.36281 8.9088 12.447844 16.636253 12.447844h18.107318c6.53362 0 12.020761-4.845268 12.797502-11.264 0.039961-0.334673 0.059941-0.671844 0.059941-1.006517 0-4.220878-2.619941-6.95321-8.361834-8.713991-6.416234-2.03801-11.940839-3.05202-16.538848-3.089482z m0.119882-14.985366c6.231415 0.049951 13.204605 1.328702 20.884605 3.771317 11.37639 3.486595 18.881561 11.306459 18.881561 23.017522 0 0.934088-0.054946 1.868176-0.167336 2.797269-1.683356 13.961366-13.574244 24.456117-27.675473 24.456117h-18.107318c-14.390946 0-27.05358-9.488234-31.032195-23.277269-3.299278-11.413854 3.329249-23.317229 14.770576-26.596526a111.21639 111.21639 0 0 1 5.92921-1.910635c5.244878-1.466068 10.677073-2.305249 16.51637-2.257795z" fill="#524F75" p-id="8074" data-darkreader-inline-fill="" style="--darkreader-inline-fill:#aaa398;"></path><path d="M339.401054 459.35641l28.821853 4.235863v21.099395a10.657093 10.657093 0 0 1-11.463805 10.627122l-1.253775-0.094907a14.985366 14.985366 0 0 1-13.227083-10.657093c-0.724293-2.427629-1.173854-4.01358-1.351181-4.762849-0.357151-1.506029-0.864156-8.321873-1.526009-20.447531z" fill="#FFFFFF" p-id="8075" data-darkreader-inline-fill="" style="--darkreader-inline-fill:#e8e6e3;"></path><path d="M347.001132 478.372839c0.137366 0.586927 0.569444 2.102946 1.256273 4.408195a8.743961 8.743961 0 0 0 7.717463 6.218927l1.253776 0.09241a4.41319 4.41319 0 0 0 4.747863-4.400703v-15.707161l-15.90197-2.337717c0.424585 6.873288 0.759259 11.014244 0.924097 11.726049z m27.46318-20.175298v26.494127a16.900995 16.900995 0 0 1-18.177249 16.853542l-1.256273-0.094908a21.229268 21.229268 0 0 1-18.741697-15.097756c-0.759259-2.547512-1.231298-4.20839-1.448586-5.12-0.482029-2.062985-0.976546-8.696507-1.675863-21.536468l-0.417093-7.630049 41.716761 6.131512z" fill="#524F75" p-id="8076" data-darkreader-inline-fill="" style="--darkreader-inline-fill:#aaa398;"></path><path d="M363.617405 459.35641l34.658654 1.078946-2.372683 27.285854a14.171161 14.171161 0 0 1-14.116215 12.944858 14.723122 14.723122 0 0 1-14.610732-12.892409l-3.559024-28.417249z" fill="#FFFFFF" p-id="8077" data-darkreader-inline-fill="" style="--darkreader-inline-fill:#e8e6e3;"></path><path d="M373.375376 486.991922a8.47922 8.47922 0 0 0 8.414283 7.425249 7.927259 7.927259 0 0 0 7.897287-7.24043l1.798244-20.709775-20.762224-0.646868 2.65241 21.171824z m31.694048-32.593171l-2.942126 33.859434a20.415063 20.415063 0 0 1-20.340137 18.646791 20.969522 20.969522 0 0 1-20.804683-18.357074l-4.470634-35.662673 48.55758 1.511025z" fill="#524F75" p-id="8078" data-darkreader-inline-fill="" style="--darkreader-inline-fill:#aaa398;"></path><path d="M401.677737 467.563395c11.328937-3.316761 17.800117-8.316878 29.678517-20.809678l1.191336-1.253776a7.492683 7.492683 0 0 0-10.86439-10.319921l-1.186341 1.24878c-10.175063 10.699551-14.945405 14.388449-23.03001 16.753639-8.961249 2.622439-21.324176 2.582478-39.606322-0.62439l-1.938107-0.339669-1.855688 0.656859c-11.65362 4.123473-17.982439 1.306224-21.2992-7.212956a7.492683 7.492683 0 1 0-13.963864 5.43719c6.069073 15.592273 20.065405 22.253268 38.345054 16.541347 19.37358 3.246829 33.367415 3.189385 44.529015-0.074927z" fill="#524F75" p-id="8079" data-darkreader-inline-fill="" style="--darkreader-inline-fill:#aaa398;"></path><path d="M362.203785 451.703883c-0.82919-2.237815-0.82919-4.817795 0.137366-7.96722a7.492683 7.492683 0 0 0-14.328507-4.395707c-1.890654 6.16398-1.890654 12.095688 0.137366 17.567844 2.909659 7.857327 5.169951 10.954302 11.803473 12.27801a7.492683 7.492683 0 0 0 3.38919-14.585756c-0.22478-0.497015-0.574439-1.368663-1.138888-2.897171z" fill="#524F75" p-id="8080" data-darkreader-inline-fill="" style="--darkreader-inline-fill:#aaa398;"></path><path d="M519.405268 487.81362c4.605502-3.861229 8.024663-6.466185 10.1376-11.998283 2.814751-7.387785 4.80281-13.384429 4.89522-18.991454 0.159844-9.805424-18.65678 11.03922-33.687103 6.136507" fill="#FFDDC5" p-id="8081" data-darkreader-inline-fill="" style="--darkreader-inline-fill:#ffc9a3;"></path><path d="M516.340761 469.166829c-6.391259 1.890654-12.280507 2.1504-17.825093 0.124878a7.492683 7.492683 0 0 1 5.139981-14.078751c2.085463 0.761756 4.852761 0.639376 8.431766-0.41959 2.357698-0.699317 4.767844-1.685854 8.184507-3.28679 0.571941-0.267239 2.649912-1.24878 2.44761-1.158869 0.994029-0.469541 1.713327-0.79922 2.405151-1.111414 1.998049-0.889132 3.546537-1.468566 5.077541-1.818225 6.833327-1.563473 12.635161 2.697366 12.243044 10.259981-0.312195 6.084059-2.077971 11.718556-6.134009 21.336663-2.142907 5.082537-4.957659 8.361834-9.772957 12.228059-0.454556 0.362146-0.9216 0.731785-1.531004 1.208819-0.169834 0.132371-1.223805 0.951571-1.536 1.19883a7.487688 7.487688 0 0 1-10.514732-1.298732 7.487688 7.487688 0 0 1 1.293736-10.514732l1.543493-1.198829c0.561951-0.437073 0.976546-0.766751 1.363668-1.078947 3.047024-2.445112 4.32078-3.931161 5.349776-6.366282a133.207415 133.207415 0 0 0 2.982088-7.590088c-3.4816 1.603434-6.221424 2.697366-9.148566 3.561522z" fill="#524F75" p-id="8082" data-darkreader-inline-fill="" style="--darkreader-inline-fill:#aaa398;"></path><path d="M510.598868 463.03282c15.614751-15.055298 22.168351-28.412254 25.400195-39.726205 3.229346-11.311454-18.64679 11.865912-34.541268 1.523512" fill="#FFDDC5" p-id="8083" data-darkreader-inline-fill="" style="--darkreader-inline-fill:#ffc9a3;"></path><path d="M511.090888 435.065132c-4.930185 0.00999-9.565659-1.241288-13.7216-3.946147a7.492683 7.492683 0 0 1 8.174517-12.560234c1.603434 1.04398 3.384195 1.52601 5.514615 1.523512 3.161912-0.007493 6.795863-1.041483 11.556214-3.106965 1.123902-0.489522 4.772839-2.152898 4.827786-2.177874 2.090459-0.936585 3.486595-1.478556 4.92519-1.823219 8.249444-1.985561 13.044761 4.675434 10.836917 12.402888-4.268332 14.935415-12.61518 28.799376-27.405737 43.060448a7.492683 7.492683 0 1 1-10.402341-10.786965c8.986224-8.664039 15.090263-16.908488 19.163785-25.300293-4.760351 1.765776-9.02119 2.707356-13.469346 2.714849z" fill="#524F75" p-id="8084" data-darkreader-inline-fill="" style="--darkreader-inline-fill:#aaa398;"></path><path d="M579.90119 373.180566c-8.50919-8.564137-16.851044-13.719102-25.207883-15.202654a7.49518 7.49518 0 0 0-2.619941 14.75559c4.880234 0.866654 10.672078 4.448156 17.198205 11.011747a7.492683 7.492683 0 0 0 10.629619-10.564683z" fill="#524F75" p-id="8085" data-darkreader-inline-fill="" style="--darkreader-inline-fill:#aaa398;"></path></svg>